
<svg xmlns="http://www.w3.org/2000/svg" viewBox="0 0 300 30"><path d="M0,0C11.13,0,16.8,5.94,21.8,11.19c4.51,4.73,8.08,8.47,15.7,8.47s11.19-3.74,15.7-8.47C58.2,5.94,63.87,0,75,0S91.79,5.94,96.79,11.19c4.52,4.73,8.08,8.47,15.7,8.47s11.19-3.74,15.71-8.47C133.2,5.94,138.87,0,150,0s16.8,5.94,21.8,11.19c4.51,4.73,8.08,8.47,15.7,8.47s11.19-3.74,15.71-8.47C208.2,5.94,213.87,0,225,0s16.8,5.94,21.8,11.19c4.52,4.73,8.08,8.47,15.7,8.47s11.19-3.74,15.71-8.47C283.2,5.94,288.87,0,300,0V10.34c-7.62,0-11.19,3.74-15.71,8.47-5,5.25-10.67,11.19-21.8,11.19S245.7,24.06,240.7,18.81c-4.52-4.73-8.08-8.47-15.71-8.47s-11.19,3.74-15.7,8.47c-5,5.25-10.67,11.19-21.8,11.19S170.7,24.06,165.7,18.81c-4.52-4.73-8.09-8.47-15.71-8.47s-11.19,3.74-15.7,8.47c-5,5.25-10.67,11.19-21.8,11.19S95.7,24.06,90.7,18.81c-4.51-4.73-8.08-8.47-15.7-8.47s-11.19,3.74-15.7,8.47C54.3,24.06,48.63,30,37.5,30S20.7,24.06,15.7,18.81C11.19,14.08,7.62,10.34,0,10.34Z"/></svg>